<?xml version="1.0" standalone="no"?>
<!DOCTYPE svg PUBLIC "-//W3C//DTD SVG 20010904//EN"
 "http://www.w3.org/TR/2001/REC-SVG-20010904/DTD/svg10.dtd">
<svg version="1.0" xmlns="http://www.w3.org/2000/svg"
 width="800.000000pt" height="800.000000pt" viewBox="0 0 800.000000 800.000000"
 preserveAspectRatio="xMidYMid meet">

<g transform="translate(0.000000,800.000000) scale(0.100000,-0.100000)"
fill="#000000" stroke="none">
<path d="M3728 7933 c12 -2 30 -2 40 0 9 3 -1 5 -23 4 -22 0 -30 -2 -17 -4z"/>
<path d="M3618 7923 c12 -2 32 -2 45 0 12 2 2 4 -23 4 -25 0 -35 -2 -22 -4z"/>
<path d="M4258 7923 c12 -2 32 -2 45 0 12 2 2 4 -23 4 -25 0 -35 -2 -22 -4z"/>
<path d="M3528 7913 c12 -2 30 -2 40 0 9 3 -1 5 -23 4 -22 0 -30 -2 -17 -4z"/>
<path d="M3356 7894 c-96 -15 -264 -55 -206 -50 19 2 76 11 125 21 50 9 122
23 160 30 92 17 35 16 -79 -1z"/>
<path d="M2965 7810 c-181 -50 -349 -106 -452 -151 -24 -11 -47 -19 -51 -19
-5 0 -44 -17 -88 -39 -43 -21 -89 -41 -101 -45 -12 -4 -46 -21 -75 -37 -29
-16 -65 -35 -80 -42 -16 -6 -28 -15 -28 -19 0 -4 -5 -8 -11 -8 -6 0 -40 -17
-76 -37 -102 -60 -115 -68 -242 -152 -46 -31 -90 -60 -99 -66 -23 -15 -33 -22
-67 -51 -16 -14 -49 -39 -72 -56 -24 -17 -43 -35 -43 -40 0 -4 -5 -8 -11 -8
-13 0 -125 -98 -248 -215 -113 -108 -181 -183 -311 -341 -35 -43 -69 -82 -75
-86 -5 -4 -7 -8 -3 -8 5 0 0 -8 -10 -18 -28 -31 -48 -57 -68 -90 -10 -18 -22
-32 -26 -32 -4 0 -8 -5 -8 -10 0 -6 -20 -38 -43 -73 -24 -34 -57 -84 -72 -112
-16 -27 -32 -52 -35 -55 -14 -13 -185 -350 -218 -430 -13 -30 -30 -71 -39 -90
-8 -19 -35 -89 -59 -156 -267 -736 -306 -1550 -113 -2314 39 -151 105 -363
135 -427 7 -17 14 -33 14 -36 0 -17 128 -300 177 -392 97 -180 121 -221 195
-333 66 -99 203 -291 217 -302 3 -3 42 -48 85 -100 80 -94 216 -240 290 -309
21 -20 46 -43 55 -52 24 -24 263 -221 295 -244 16 -11 47 -34 70 -50 53 -39
171 -116 216 -141 19 -10 39 -25 43 -32 4 -6 12 -12 16 -12 4 0 61 -30 126
-66 66 -37 132 -71 147 -76 15 -6 28 -14 28 -19 0 -6 6 -9 13 -8 6 1 53 -17
102 -41 50 -23 126 -55 170 -71 44 -16 89 -33 100 -38 11 -5 58 -21 105 -36
47 -14 105 -32 130 -40 134 -42 386 -95 570 -120 356 -49 777 -44 1160 15 240
36 552 117 720 185 30 12 89 35 130 50 93 34 223 95 232 109 4 6 8 7 8 3 0 -7
197 89 210 103 3 3 30 18 60 34 73 39 338 209 350 225 3 4 21 17 40 29 19 11
46 31 60 44 14 13 48 41 75 63 158 127 433 398 526 520 13 17 26 32 29 35 22
20 240 315 240 326 0 3 14 24 31 46 17 21 29 41 26 44 -3 3 -14 -7 -23 -23
-10 -15 -21 -30 -24 -33 -3 -3 -22 -30 -42 -60 -55 -84 -205 -279 -278 -361
-80 -90 -310 -320 -374 -374 -26 -22 -60 -50 -74 -63 -47 -40 -55 -46 -137
-108 -109 -82 -302 -210 -405 -267 -47 -26 -92 -52 -100 -57 -8 -6 -73 -39
-145 -74 -646 -320 -1367 -455 -2080 -391 -236 21 -378 46 -660 117 -174 43
-523 162 -547 186 -7 7 -17 12 -24 12 -16 0 -229 106 -347 172 -686 386 -1255
985 -1595 1680 -89 182 -97 200 -142 313 -277 698 -344 1501 -189 2240 35 163
98 392 125 452 8 17 14 36 14 43 0 7 6 26 14 43 8 18 31 75 51 127 93 240 234
507 385 731 48 70 184 254 209 281 9 9 21 23 26 30 120 149 318 346 521 518
109 93 383 290 403 290 5 0 14 7 21 15 7 8 24 21 39 28 14 8 44 24 66 37 127
75 374 200 394 200 4 0 21 6 37 14 67 33 122 55 149 62 17 4 35 10 40 14 6 5
55 22 110 39 55 17 114 36 130 42 17 6 73 22 125 35 52 14 96 27 99 29 11 12
-52 1 -144 -25z"/>
<path d="M3680 7830 c-36 -3 -73 -11 -84 -17 -16 -9 -14 -11 15 -18 l34 -9
-47 -3 c-44 -4 -47 -6 -63 -45 -17 -44 -11 -58 27 -58 9 0 19 -3 21 -7 3 -5
-11 -8 -31 -8 -34 0 -36 -1 -47 -52 -14 -60 -20 -55 85 -73 104 -18 101 -16
95 -63 -3 -23 -16 -94 -28 -158 l-21 -116 -81 14 c-44 7 -87 13 -95 13 -17 0
-43 -95 -76 -269 -16 -85 -14 -95 21 -104 13 -3 9 -5 -12 -6 -29 -1 -33 -4
-35 -31 -4 -71 -3 -74 22 -81 24 -7 24 -7 -5 -8 l-30 -1 -26 -126 -25 -126 20
-8 c20 -8 20 -9 -1 -9 -13 -1 -23 -4 -23 -8 -1 -5 -5 -28 -9 -52 -8 -40 -7
-44 13 -49 20 -6 20 -6 -3 -12 -13 -3 -25 -14 -27 -24 -22 -147 -80 -472 -102
-566 -9 -41 -17 -79 -17 -84 0 -5 16 -15 35 -22 l35 -13 -42 6 c-24 3 -43 4
-44 2 0 -2 -2 -24 -5 -49 -2 -25 -9 -65 -14 -90 -6 -25 -17 -88 -25 -140 -28
-185 -47 -296 -66 -390 -27 -133 -26 -136 19 -148 l37 -10 -41 -1 c-38 -1 -42
-4 -48 -32 -11 -57 -8 -67 27 -75 l32 -8 -40 -6 c-34 -4 -40 -9 -43 -30 -1
-14 -12 -74 -24 -133 -29 -145 -30 -146 -176 -124 -276 42 -423 42 -752 -1
-82 -11 -244 -65 -325 -109 -22 -12 -65 -34 -95 -50 -30 -15 -56 -31 -58 -35
-2 -5 -9 -8 -16 -8 -7 0 -21 -9 -31 -20 -10 -11 -26 -20 -37 -20 -10 0 -18 -4
-18 -8 0 -5 -11 -14 -25 -20 -14 -7 -31 -17 -38 -22 -7 -6 -57 -43 -113 -83
-161 -116 -172 -126 -136 -128 9 -1 -1 -5 -22 -10 -22 -5 -48 -17 -58 -27 -10
-9 -27 -26 -38 -37 l-21 -19 23 -13 c22 -13 22 -14 -7 -8 -26 4 -39 -3 -95
-54 -64 -59 -64 -60 -40 -70 25 -10 25 -10 -6 -10 -33 -1 -69 -35 -143 -133
-19 -27 -40 -48 -46 -48 -6 0 -19 -13 -28 -30 -10 -16 -24 -30 -30 -30 -32 -1
28 -19 115 -35 l96 -18 -9 -26 c-5 -14 -20 -46 -33 -71 -20 -39 -68 -185 -84
-258 -4 -21 -9 -23 -36 -18 -17 4 -59 10 -92 13 -73 7 -73 7 -72 -112 1 -164
44 -413 87 -510 10 -22 22 -51 26 -65 27 -87 149 -284 236 -382 32 -37 59 -71
59 -76 0 -27 198 -162 269 -183 22 -6 38 -15 36 -20 -8 -12 69 -36 220 -68
221 -47 280 -54 448 -58 122 -3 157 -7 157 -17 0 -8 26 -81 59 -162 32 -82 61
-156 64 -165 4 -12 29 -19 98 -28 51 -7 94 -13 95 -14 1 -1 24 -57 51 -124
l50 -121 -89 4 c-48 3 -88 2 -88 -3 0 -4 23 -68 51 -140 l52 -133 46 -15 c44
-14 44 -14 9 -9 -21 3 -38 2 -38 -2 0 -3 12 -29 27 -56 21 -38 39 -56 75 -74
75 -38 81 -35 73 38 -7 57 -6 61 9 49 9 -7 16 -10 16 -7 0 4 12 0 28 -8 15 -8
39 -17 54 -20 15 -3 33 -13 42 -21 8 -8 32 -16 53 -18 22 -2 50 -11 63 -19 14
-9 47 -18 73 -22 27 -3 55 -13 63 -21 19 -18 70 -20 77 -2 4 9 6 9 6 0 1 -7
-28 -28 -64 -48 -36 -20 -65 -40 -65 -43 0 -12 133 -46 173 -44 44 1 121 25
284 88 96 37 120 42 165 38 51 -5 52 -4 24 8 -29 14 -28 14 103 66 72 29 136
52 141 52 9 0 26 7 124 50 43 19 61 21 146 16 54 -3 109 -8 124 -12 14 -3 32
-2 39 4 10 9 142 62 357 144 32 12 14 23 -55 32 -94 13 -94 16 1 53 439 173
447 176 509 175 56 -2 58 -1 31 11 -28 12 -28 13 70 51 275 108 491 191 599
232 66 25 134 51 150 59 17 7 98 39 180 71 83 31 199 77 258 101 59 23 116 43
125 43 10 0 27 6 38 14 11 8 110 49 219 91 235 91 355 140 409 167 37 19 106
84 106 101 0 5 12 24 27 44 l27 36 -34 -7 c-31 -7 -57 -15 -180 -61 -36 -13
-160 -61 -195 -75 -11 -4 -58 -22 -105 -40 -47 -17 -100 -38 -118 -46 -18 -7
-38 -14 -45 -14 -7 -1 -30 -9 -52 -20 -22 -11 -45 -19 -51 -20 -9 0 -54 85
-54 104 0 8 -67 194 -89 246 -5 14 -40 106 -76 205 -37 99 -80 214 -96 255
-35 93 -69 190 -69 201 0 4 17 5 38 3 28 -4 33 -3 22 5 -8 6 -24 11 -35 11
-33 1 -44 13 -70 85 -14 39 -25 71 -25 73 0 1 19 0 43 -4 31 -4 38 -3 27 5 -8
6 -27 11 -42 11 -29 0 -39 13 -63 81 l-14 39 42 -5 c31 -4 37 -3 22 4 -11 5
-31 12 -45 15 -30 6 -29 3 -135 291 -43 116 -102 275 -132 355 -124 333 -127
341 -112 351 8 4 35 15 61 24 43 14 56 14 134 0 101 -17 128 -18 152 -6 9 5
25 12 35 15 38 12 12 25 -75 37 l-92 12 44 20 c32 13 60 17 98 15 28 -3 52 -1
52 4 0 4 -9 8 -20 8 -32 0 -23 15 18 29 20 8 56 23 80 34 33 15 54 18 93 13
34 -5 49 -4 44 4 -3 5 -16 10 -27 10 -31 0 -18 8 63 39 141 54 444 171 464
180 94 41 107 44 123 34 10 -5 19 -19 21 -29 2 -10 6 -21 10 -24 11 -8 71
-169 71 -189 0 -10 6 -24 13 -30 8 -6 19 -30 26 -53 16 -52 37 -78 65 -78 12
0 28 -5 36 -10 10 -6 3 -8 -22 -3 -44 7 -45 3 -17 -66 16 -37 27 -51 43 -52
17 -1 17 -2 4 -6 -19 -5 -21 -16 -9 -48 6 -15 24 -22 77 -31 38 -7 73 -10 77
-7 5 3 6 16 2 30 -6 24 -5 25 30 19 22 -4 35 -3 35 4 0 5 -12 10 -27 10 -16 0
-33 4 -39 8 -13 8 -38 55 -49 91 -7 23 -6 23 29 17 50 -10 45 8 -6 20 l-41 9
-73 190 c-40 105 -80 204 -88 220 -8 17 -22 54 -31 82 -18 57 -53 93 -92 93
-22 0 -144 -44 -428 -155 -66 -26 -178 -69 -250 -97 -71 -27 -159 -61 -195
-75 -36 -14 -74 -30 -85 -36 -19 -10 -19 -10 0 -19 14 -6 10 -7 -15 -3 -24 3
-59 -4 -115 -26 -44 -17 -88 -33 -98 -36 -15 -5 -16 -8 -5 -14 9 -6 3 -9 -17
-9 -25 0 -151 -38 -135 -40 3 0 45 -9 95 -18 l90 -17 -35 -21 c-35 -20 -36
-20 -145 -3 l-110 18 -60 -24 c-33 -13 -213 -83 -400 -155 -187 -73 -495 -193
-685 -267 -190 -74 -407 -158 -482 -186 -76 -29 -138 -55 -138 -59 0 -3 6 -8
13 -11 6 -2 -1 -2 -18 1 -38 6 -45 17 -34 56 4 17 10 78 13 136 3 58 13 148
21 200 19 122 18 157 -4 199 -17 32 -17 37 5 169 13 75 24 155 24 177 1 22 4
71 7 109 l5 68 44 -6 c54 -7 57 0 5 14 -38 10 -39 11 -34 48 7 61 9 63 53 56
51 -8 52 2 1 16 l-38 10 13 77 c7 43 18 101 23 128 25 120 74 372 99 500 l17
90 45 -3 c33 -2 41 1 30 8 -8 5 -22 10 -30 10 -38 1 -41 14 -21 91 10 41 22
92 25 114 8 49 37 210 67 368 l22 118 40 -6 c47 -8 44 10 -3 20 -31 7 -38 30
-24 82 6 20 11 22 47 16 29 -4 38 -3 33 5 -4 7 -15 12 -24 12 -43 1 -45 11
-27 125 9 59 19 114 22 121 3 9 22 14 47 15 l41 1 -40 12 c-22 7 -40 18 -39
24 1 7 2 28 3 47 1 35 1 35 49 36 l47 1 -37 10 c-21 6 -38 14 -38 19 0 14 39
11 68 -6 15 -9 54 -24 87 -35 33 -10 51 -19 41 -19 -15 -1 -9 -9 25 -33 24
-18 46 -35 49 -38 19 -23 85 -63 117 -72 31 -9 34 -12 19 -17 -17 -6 -12 -15
40 -77 32 -38 76 -85 96 -104 21 -19 38 -40 38 -47 0 -7 4 -13 9 -13 6 0 16
-12 23 -27 7 -15 24 -33 37 -39 19 -10 20 -13 6 -16 -14 -2 -12 -9 14 -45 17
-24 31 -47 31 -53 0 -6 11 -16 25 -22 16 -7 21 -14 14 -19 -8 -5 -5 -27 11
-80 12 -41 26 -78 30 -84 15 -19 29 -220 29 -394 0 -35 3 -86 6 -112 6 -40 11
-50 33 -58 l27 -9 -25 -1 c-25 -1 -26 -3 -38 -109 -21 -186 -13 -301 24 -340
57 -61 177 -53 250 16 33 31 54 96 54 165 0 18 7 72 16 120 l16 88 42 -6 c28
-5 38 -4 31 3 -5 6 -21 12 -35 14 -35 4 -37 40 -5 132 19 54 28 105 32 178 6
107 6 130 1 290 l-3 97 35 3 35 4 -30 8 c-16 4 -36 9 -42 12 -8 2 -13 21 -13
48 l0 45 43 3 42 3 -42 13 c-23 7 -45 17 -49 23 -3 6 -6 34 -5 62 0 47 -17
115 -40 159 -17 33 -11 41 26 35 46 -7 46 9 0 17 -36 7 -55 31 -69 89 -6 25
-4 27 26 28 l33 2 -38 10 c-35 10 -43 18 -73 81 -49 99 -107 203 -121 218 -7
6 -13 18 -13 25 0 6 -11 29 -25 49 -14 20 -23 39 -20 42 2 2 41 -1 85 -8 44
-7 82 -11 84 -9 8 9 -85 134 -159 214 -44 47 -84 93 -89 103 -25 48 -48 61
-143 78 -67 12 -101 23 -112 36 -9 10 -35 40 -58 66 l-43 47 28 6 c26 5 26 5
-9 12 -34 7 -86 39 -133 84 -11 10 -31 26 -45 35 l-26 18 35 1 c34 0 34 1 -14
16 -36 10 -70 33 -120 80 -39 36 -92 76 -118 89 -46 23 -53 24 -270 23 -123
-1 -252 -5 -288 -9z m1842 -3865 c5 -16 13 -39 18 -50 5 -11 39 -101 75 -200
37 -99 70 -189 75 -200 4 -11 24 -63 43 -115 20 -52 53 -142 74 -199 26 -71
44 -105 56 -109 13 -3 15 -7 7 -12 -9 -6 -7 -21 8 -61 16 -44 26 -56 53 -67
31 -11 31 -12 6 -9 -27 4 -28 3 -22 -27 4 -17 16 -52 27 -78 19 -42 25 -48 62
-54 l41 -8 -37 -6 -37 -5 60 -160 c32 -88 88 -236 123 -330 35 -93 80 -213
100 -265 19 -52 55 -147 79 -210 l45 -115 -27 -14 c-14 -8 -46 -22 -71 -32
-25 -9 -121 -46 -215 -83 -93 -36 -174 -66 -181 -66 -6 0 -35 57 -64 128 -29
70 -59 141 -66 157 -7 17 -38 91 -68 165 -169 418 -185 450 -227 450 -30 0
-62 -35 -62 -66 0 -16 13 -63 30 -104 17 -41 56 -136 86 -210 30 -74 79 -191
107 -260 29 -69 57 -143 64 -165 6 -22 14 -42 17 -45 12 -8 41 -89 37 -100 -3
-10 -161 -79 -181 -80 -4 0 -27 -8 -50 -18 -23 -11 -69 -29 -102 -41 -33 -13
-81 -32 -107 -42 -26 -10 -53 -19 -60 -19 -8 0 -24 26 -35 57 -12 32 -75 195
-141 363 -65 168 -152 388 -191 490 -40 102 -92 235 -116 295 -174 441 -215
547 -215 560 0 13 8 15 38 10 27 -4 32 -3 17 4 -11 5 -32 12 -46 15 -22 5 -32
19 -58 82 l-31 76 41 -6 c23 -4 38 -3 35 2 -3 5 -24 12 -46 16 -22 3 -40 8
-40 11 0 2 -9 28 -20 56 l-21 52 41 -7 c24 -4 39 -3 36 2 -3 5 -23 12 -44 16
-38 6 -39 7 -76 101 -20 53 -36 101 -34 107 3 7 85 43 184 81 98 38 202 78
229 89 85 34 103 35 115 2 34 -89 195 -471 203 -481 5 -7 21 -14 36 -14 l26
-2 -28 -4 c-31 -5 -31 -16 4 -84 14 -29 26 -38 61 -47 l43 -11 -42 5 c-24 3
-43 3 -43 0 0 -4 11 -29 25 -55 31 -62 72 -77 111 -40 13 12 24 33 24 47 0 22
3 24 35 18 22 -4 35 -3 35 4 0 5 -11 10 -24 10 -42 0 -57 12 -77 57 -26 60
-25 63 19 64 l37 2 -47 10 c-34 7 -50 16 -54 31 -4 12 -56 142 -116 290 -60
148 -107 274 -105 280 3 7 103 50 223 95 121 46 230 90 244 97 38 20 62 13 72
-21z m1675 19 c-3 -3 -12 -4 -19 -1 -8 3 -5 6 6 6 11 1 17 -2 13 -5z m-2977
-564 c15 -39 28 -60 39 -60 13 0 13 -2 2 -9 -11 -7 -11 -14 2 -42 8 -19 27
-68 42 -109 15 -41 34 -91 43 -110 9 -19 15 -39 14 -43 -1 -5 7 -25 18 -45 26
-50 50 -122 39 -122 -5 0 0 -9 11 -20 11 -11 22 -32 26 -47 3 -16 9 -37 14
-48 5 -11 14 -38 21 -60 6 -22 17 -47 24 -55 7 -8 16 -26 20 -40 3 -14 13 -38
20 -55 37 -82 52 -134 41 -138 -6 -2 -17 3 -24 12 -11 15 -12 14 -6 0 6 -20
-48 -51 -72 -42 -8 3 -14 -1 -14 -8 -1 -10 -5 -9 -14 4 -18 23 -29 22 -21 -3
5 -16 3 -19 -11 -13 -11 4 -15 3 -11 -4 4 -7 -5 -14 -23 -18 -16 -4 -32 -11
-35 -16 -4 -5 -17 -9 -30 -9 -13 0 -26 -4 -29 -9 -3 -5 -22 -12 -41 -15 -20
-4 -52 -18 -72 -32 -20 -13 -49 -24 -65 -24 -16 0 -37 -7 -45 -16 -16 -15 -41
-15 -88 2 -20 7 -20 6 -1 -8 19 -15 19 -16 -2 -27 -26 -14 -54 -15 -32 -1 8 5
11 10 5 10 -19 0 -38 -18 -31 -29 5 -7 -4 -11 -23 -11 -17 0 -31 -4 -31 -10 0
-5 -6 -10 -13 -10 -29 0 -48 -36 -46 -89 2 -45 5 -52 26 -57 26 -7 30 -22 8
-30 -24 -9 -17 -24 10 -24 14 0 25 5 25 10 0 6 6 10 13 10 8 0 22 9 32 20 10
11 26 20 35 20 9 0 22 6 29 13 11 10 13 10 7 0 -5 -8 -1 -13 9 -13 11 0 15 5
11 15 -4 11 1 15 19 15 29 0 34 -16 8 -23 -10 -2 10 -4 44 -3 35 0 61 5 60 10
-2 13 75 24 171 25 65 1 72 3 72 21 0 18 7 20 80 20 73 0 80 2 80 20 0 13 7
20 19 20 10 0 46 3 80 6 57 6 61 6 61 -14 0 -17 -7 -22 -42 -25 -40 -3 -40 -4
12 -6 30 -1 49 -5 43 -8 -15 -6 -17 -43 -3 -43 6 0 10 7 10 16 0 8 4 13 9 10
5 -3 7 -31 4 -61 -3 -36 -1 -55 6 -55 6 0 11 10 11 23 1 21 1 22 15 3 8 -11
15 -27 14 -35 0 -11 -2 -12 -6 -3 -4 10 -8 10 -19 1 -22 -18 -46 17 -40 59 3
18 0 32 -5 32 -6 0 -10 -21 -9 -47 3 -97 9 -90 -80 -98 -58 -5 -80 -11 -80
-21 0 -10 -12 -14 -40 -14 -28 0 -40 -4 -40 -14 0 -11 -23 -16 -87 -22 -99 -9
-574 -12 -758 -4 l-120 5 -3 -28 c-2 -15 -8 -25 -13 -21 -5 3 -6 10 -3 16 4 6
2 8 -4 4 -6 -3 -13 -2 -17 4 -3 5 -2 10 3 10 5 0 8 12 6 28 -2 15 -1 19 2 10
5 -18 23 -25 25 -10 0 4 2 17 3 30 2 16 -2 22 -13 20 -21 -5 -61 53 -61 86 0
18 -5 26 -17 26 -17 1 -17 1 -1 14 24 18 6 86 -22 86 -11 0 -20 -5 -20 -11 0
-6 6 -9 14 -6 22 9 31 -42 11 -62 -15 -15 -16 -14 -9 13 4 16 3 27 -2 24 -5
-3 -18 14 -29 37 l-20 42 49 2 c46 2 48 1 44 -21 -4 -23 -3 -23 79 -20 78 3
83 2 83 -17 0 -20 6 -21 86 -21 81 0 85 -1 79 -20 -4 -11 -2 -20 4 -20 6 0 12
6 13 13 0 6 2 17 3 22 2 6 4 17 5 25 2 8 6 -3 9 -25 7 -38 7 -37 12 23 4 63
-3 80 -16 40 -7 -22 -8 -21 -13 7 -5 30 -5 30 -11 5 -6 -21 -14 -25 -49 -28
-23 -2 -42 1 -42 6 0 6 -36 13 -80 17 -44 4 -80 11 -80 16 0 5 -18 9 -40 9
-29 0 -40 4 -40 15 0 11 -12 15 -45 15 -28 0 -45 5 -45 12 0 6 -3 8 -6 5 -4
-4 -1 -13 6 -22 7 -9 10 -18 7 -21 -9 -10 -39 45 -39 71 0 14 -4 25 -8 25 -6
0 -30 44 -30 56 0 3 5 2 10 -1 18 -11 11 23 -7 37 -24 18 -47 64 -39 77 4 6 3
11 -1 11 -14 0 -46 69 -46 100 0 16 -4 27 -9 24 -8 -5 -10 0 -12 29 -1 6 -5
15 -10 19 -6 4 -6 12 1 20 12 15 14 50 2 42 -5 -2 -6 -11 -2 -19 10 -27 -5
-15 -26 21 -12 20 -22 47 -23 60 -1 13 -6 24 -10 24 -4 0 -8 8 -8 18 0 9 -7
26 -15 36 -8 11 -15 26 -15 34 0 8 -6 28 -14 45 -8 18 -26 60 -39 94 l-25 61
77 30 c42 16 110 42 151 58 41 15 84 34 95 40 11 7 41 18 68 25 26 6 50 15 53
20 3 5 33 6 67 3 l62 -5 -30 17 -30 17 30 10 c17 5 69 25 117 44 78 32 90 34
132 25 25 -5 48 -7 51 -4 11 11 4 22 -15 22 -11 0 -20 3 -20 8 0 7 48 32 63
32 4 0 27 9 51 19 34 16 50 18 82 11 51 -12 64 -12 64 0 0 5 -12 13 -26 16
-25 6 -23 8 22 26 27 11 58 24 69 28 67 28 70 27 95 -40z m1697 -346 c-3 -3
-12 -4 -19 -1 -8 3 -5 6 6 6 11 1 17 -2 13 -5z m-1240 -857 c1 -58 1 -60 -11
-33 l-13 29 -7 -27 c-6 -23 -12 -26 -46 -26 -29 0 -40 -4 -40 -15 0 -11 -11
-15 -40 -15 -23 0 -40 -5 -40 -11 0 -8 -16 -10 -49 -7 -39 4 -48 2 -47 -11 0
-8 -7 -17 -18 -19 -12 -3 -16 0 -11 8 6 9 0 11 -23 8 -17 -2 -34 0 -36 6 -2 6
-5 3 -5 -6 -1 -13 -10 -16 -46 -15 -40 1 -49 15 -14 21 8 1 28 10 46 19 18 9
41 17 52 17 11 0 23 5 27 11 3 6 15 9 25 6 11 -3 19 -2 19 3 0 4 11 6 25 5 14
-2 23 1 19 6 -3 5 -11 6 -17 2 -7 -4 -6 1 2 11 11 13 16 14 22 4 7 -10 9 -10
9 0 0 6 3 11 8 10 4 -1 23 3 42 10 19 7 37 12 39 11 2 0 7 4 11 11 4 6 23 12
43 13 19 1 33 4 31 6 -3 3 6 11 18 18 13 7 23 12 23 13 0 0 1 -28 2 -63z m20
-39 c-3 -7 -5 -2 -5 12 0 14 2 19 5 13 2 -7 2 -19 0 -25z m-917 -114 c0 -8 -4
-12 -10 -9 -5 3 -10 10 -10 16 0 5 5 9 10 9 6 0 10 -7 10 -16z m373 -7 c4 -10
-2 -13 -20 -9 -18 3 -21 7 -11 13 18 12 25 11 31 -4z m-38 -37 c-3 -5 -13 -10
-21 -10 -8 0 -14 5 -14 10 0 6 9 10 21 10 11 0 17 -4 14 -10z m-198 -46 c-3
-3 -12 -4 -19 -1 -8 3 -5 6 6 6 11 1 17 -2 13 -5z m-479 -79 c-3 -3 -9 2 -12
12 -6 14 -5 15 5 6 7 -7 10 -15 7 -18z m1392 -45 c0 -8 7 -27 14 -42 12 -23
13 -28 1 -28 -7 0 -16 10 -18 23 -4 19 -4 18 -6 -5 0 -16 4 -28 9 -28 6 0 9
-3 9 -7 -4 -22 3 -35 26 -45 14 -6 25 -19 25 -30 0 -10 5 -18 10 -18 6 0 10
-5 10 -11 0 -5 -6 -7 -12 -4 -7 4 -5 0 6 -9 10 -8 15 -19 11 -25 -3 -6 -2 -11
3 -11 4 0 19 -33 32 -72 13 -40 30 -79 37 -86 7 -7 13 -21 13 -30 0 -10 13
-44 30 -77 16 -33 30 -67 30 -76 0 -8 4 -19 9 -25 5 -5 11 -20 13 -34 3 -22
-4 -27 -57 -48 -33 -13 -92 -37 -132 -54 -39 -16 -82 -31 -96 -32 -16 -1 -23
-6 -19 -15 4 -10 -2 -13 -26 -9 -17 2 -29 1 -27 -2 2 -4 -40 -23 -93 -43 -53
-20 -135 -52 -182 -71 -47 -20 -93 -36 -102 -36 -10 0 -18 -4 -18 -9 0 -5 -18
-12 -40 -16 -22 -4 -40 -11 -40 -16 0 -5 -10 -9 -23 -9 -20 0 -70 -27 -57 -31
3 -1 38 -6 78 -13 40 -6 73 -15 73 -21 0 -5 -26 -19 -58 -31 -67 -24 -82 -30
-141 -55 l-43 -18 -19 44 c-10 24 -25 63 -31 86 -14 46 -26 53 -114 63 -90 11
-103 16 -108 39 -7 30 -45 135 -63 174 -14 32 -44 112 -44 119 0 2 14 4 30 4
20 0 30 5 30 15 0 11 -11 15 -40 15 -28 0 -40 4 -40 14 0 8 5 17 10 19 6 3 5
4 -2 3 -13 -3 -34 39 -58 114 -8 25 -18 48 -23 51 -6 4 -10 21 -11 38 0 17 -6
33 -13 35 -7 3 -15 22 -19 43 -4 21 -15 52 -25 70 -10 18 -19 45 -21 60 -2 15
-7 31 -12 35 -6 4 -4 13 3 22 17 20 167 23 174 4 3 -10 75 -13 317 -13 242 0
314 3 318 13 2 8 28 12 83 12 70 0 79 2 79 19 0 16 15 20 120 31 117 13 120
14 120 38 0 22 3 24 45 20 41 -3 44 -1 39 17 -6 20 -6 20 10 0 8 -11 16 -27
16 -35z"/>
<path d="M3091 2864 c0 -11 3 -14 6 -6 3 7 2 16 -1 19 -3 4 -6 -2 -5 -13z"/>
<path d="M3090 2821 c0 -10 19 -25 25 -20 1 2 -3 10 -11 17 -8 7 -14 8 -14 3z"/>
<path d="M3191 2654 c0 -11 3 -14 6 -6 3 7 2 16 -1 19 -3 4 -6 -2 -5 -13z"/>
<path d="M3243 2453 c-7 -3 -13 -9 -13 -14 0 -6 4 -8 9 -4 5 3 12 1 16 -5 3
-5 12 -10 18 -10 8 0 9 2 1 8 -6 4 -13 12 -15 18 -2 6 -10 9 -16 7z"/>
<path d="M4365 2390 c-3 -5 1 -10 10 -10 9 0 13 5 10 10 -3 6 -8 10 -10 10 -2
0 -7 -4 -10 -10z"/>
<path d="M3250 2386 c0 -2 7 -6 15 -10 8 -3 15 -1 15 4 0 6 -7 10 -15 10 -8 0
-15 -2 -15 -4z"/>
<path d="M4167 2276 c-4 -10 0 -12 14 -9 10 3 16 9 13 14 -8 13 -21 11 -27 -5z"/>
<path d="M3307 2273 c-3 -5 -2 -15 4 -23 7 -12 9 -12 9 -1 0 11 3 11 16 0 14
-12 16 -11 13 6 -4 21 -33 32 -42 18z"/>
<path d="M3940 2230 c0 -5 7 -10 16 -10 8 0 12 5 9 10 -3 6 -10 10 -16 10 -5
0 -9 -4 -9 -10z"/>
<path d="M4045 2230 c-3 -5 -1 -10 4 -10 6 0 11 5 11 10 0 6 -2 10 -4 10 -3 0
-8 -4 -11 -10z"/>
<path d="M3341 2213 c7 -10 15 -20 16 -22 2 -2 3 3 3 11 0 9 -7 19 -16 22 -15
6 -15 4 -3 -11z"/>
<path d="M3820 2150 c0 -13 11 -13 30 0 12 8 11 10 -7 10 -13 0 -23 -4 -23
-10z"/>
<path d="M3538 2003 c12 -2 32 -2 45 0 12 2 2 4 -23 4 -25 0 -35 -2 -22 -4z"/>
<path d="M4418 2003 c12 -2 32 -2 45 0 12 2 2 4 -23 4 -25 0 -35 -2 -22 -4z"/>
<path d="M3888 1923 c6 -2 18 -2 25 0 6 3 1 5 -13 5 -14 0 -19 -2 -12 -5z"/>
<path d="M3500 1910 c0 -5 5 -10 10 -10 6 0 10 5 10 10 0 6 -4 10 -10 10 -5 0
-10 -4 -10 -10z"/>
<path d="M4578 1913 c12 -2 32 -2 45 0 12 2 2 4 -23 4 -25 0 -35 -2 -22 -4z"/>
<path d="M3878 1833 c67 -2 177 -2 245 0 67 1 12 3 -123 3 -135 0 -190 -2
-122 -3z"/>
<path d="M4495 2189 c-11 -17 0 -20 21 -4 17 13 17 14 2 15 -9 0 -20 -5 -23
-11z"/>
<path d="M3582 1660 c-15 -24 -15 -50 -2 -70 8 -11 9 -7 4 14 -5 21 -4 27 5
22 7 -5 11 3 11 23 0 36 -1 37 -18 11z"/>
<path d="M3536 1658 c3 -5 10 -6 15 -3 13 9 11 12 -6 12 -8 0 -12 -4 -9 -9z"/>
<path d="M4892 1600 c0 -14 2 -19 5 -12 2 6 2 18 0 25 -3 6 -5 1 -5 -13z"/>
<path d="M3582 1540 c0 -14 2 -19 5 -12 2 6 2 18 0 25 -3 6 -5 1 -5 -13z"/>
<path d="M4882 1540 c0 -14 2 -19 5 -12 2 6 2 18 0 25 -3 6 -5 1 -5 -13z"/>
<path d="M3745 1180 c3 -5 8 -10 11 -10 2 0 4 5 4 10 0 6 -5 10 -11 10 -5 0
-7 -4 -4 -10z"/>
<path d="M7360 3877 c0 -39 85 -77 173 -77 19 0 19 1 4 18 -10 10 -17 24 -17
30 0 12 -44 25 -117 37 -34 5 -43 4 -43 -8z"/>
<path d="M7180 3852 c0 -7 35 -100 59 -157 5 -11 15 -36 21 -55 7 -19 19 -48
26 -65 8 -16 33 -82 57 -145 211 -553 242 -626 270 -634 29 -7 34 -2 52 57
l17 52 -45 135 c-24 74 -69 198 -100 275 -30 77 -73 187 -96 245 -22 58 -55
143 -73 190 l-33 85 -45 7 c-25 4 -60 10 -77 13 -18 3 -33 2 -33 -3z"/>
<path d="M6467 3652 c-10 -10 -17 -29 -17 -42 0 -12 28 -95 61 -184 34 -89 88
-230 120 -315 32 -84 60 -156 63 -159 3 -3 23 -8 43 -12 l38 -8 -36 -1 -37 -1
21 -55 c16 -44 25 -57 46 -61 51 -11 67 -22 24 -17 -24 3 -43 2 -43 -2 0 -7
38 -93 59 -135 4 -8 22 -18 40 -21 46 -10 51 -19 6 -12 -35 6 -38 4 -31 -13 4
-10 17 -43 28 -72 25 -66 55 -89 94 -70 41 20 50 40 38 88 l-11 40 36 1 36 1
-42 10 c-40 10 -43 13 -67 80 -14 38 -26 71 -26 74 0 2 17 4 38 5 l37 1 -45
12 c-40 11 -47 17 -62 56 -24 63 -23 67 20 62 46 -5 39 5 -12 15 -41 9 -45 16
-122 218 -21 55 -41 102 -46 103 -4 2 -8 12 -8 23 0 10 -15 58 -34 107 -18 48
-49 127 -67 175 -19 48 -42 97 -52 108 -22 24 -69 25 -90 1z"/>
<path d="M7610 2766 c0 -2 7 -9 15 -16 12 -10 15 -10 15 4 0 9 -7 16 -15 16
-8 0 -15 -2 -15 -4z"/>
<path d="M7646 2525 c-9 -26 -7 -32 5 -12 6 10 9 21 6 23 -2 3 -7 -2 -11 -11z"/>
<path d="M7570 2349 c-6 -11 -10 -25 -8 -30 2 -5 8 4 15 21 13 34 9 40 -7 9z"/>
<path d="M7477 2161 c-4 -17 -3 -21 5 -13 5 5 8 16 6 23 -3 8 -7 3 -11 -10z"/>
<path d="M7446 2098 l-18 -33 21 25 c18 22 26 40 18 40 -1 0 -11 -15 -21 -32z"/>
<path d="M7411 2033 c-10 -26 -10 -27 4 -9 8 11 15 23 15 28 0 15 -7 8 -19
-19z"/>
<path d="M7377 1973 c-11 -13 -17 -27 -14 -30 3 -2 13 7 23 21 22 34 15 42 -9
9z"/>
</g>
</svg>
